{"glyphs":{"$":{"x_min":0,"x_max":1377,"ha":1377,"o":"m 1175 512 b 1233 538 1245 545 1307 580 b 1230 719 1076 816 905 816 b 824 816 750 794 682 757 b 617 794 541 816 460 816 b 286 816 140 719 60 580 b 121 545 132 538 192 512 b 245 604 343 667 460 667 b 493 667 524 661 555 652 b 487 571 448 470 448 357 b 448 244 487 142 555 62 b 524 53 493 47 460 47 b 347 47 250 106 194 198 b 133 166 121 161 62 129 b 142 -10 289 -102 460 -102 b 541 -102 617 -80 682 -43 b 750 -80 824 -102 905 -102 b 1076 -102 1223 -10 1303 129 b 1241 161 1232 166 1170 198 b 1118 106 1018 47 905 47 b 873 47 841 53 809 62 b 878 142 919 244 919 357 b 919 470 878 571 809 652 b 841 661 873 667 905 667 b 1023 667 1122 603 1175 512 z m 682 571 b 735 515 770 441 770 357 b 770 273 735 198 682 142 b 629 198 598 273 598 357 b 598 441 629 515 682 571 z"},"a":{"x_min":0,"x_max":807,"ha":807,"o":"m 144 0 l 219 158 l 580 158 l 650 0 l 802 0 l 483 713 l 325 713 l 1 0 z m 407 579 l 523 303 l 286 303 l 406 579 z"},"L":{"x_min":0,"x_max":593,"ha":593,"o":"m 574 5 l 574 137 l 208 137 l 208 717 l 54 717 l 54 5 z"},"3":{"x_min":0,"x_max":548,"ha":548,"o":"m 213 311 b 278 311 372 307 372 210 b 372 131 323 93 267 93 b 173 93 163 179 163 217 l 164 218 l 27 218 b 27 -4 207 -19 274 -19 b 418 -19 516 77 516 210 b 516 331 434 367 409 375 l 409 377 b 449 396 494 440 494 512 b 494 661 369 710 274 710 b 114 710 39 615 39 482 l 169 482 b 169 507 169 598 265 598 b 342 598 354 534 354 507 b 354 415 278 411 235 411 l 213 411 z"},"J":{"x_min":0,"x_max":556,"ha":556,"o":"m 487 714 l 330 714 l 330 232 b 330 181 330 115 247 115 b 174 115 159 151 159 204 l 14 180 b 14 160 25 109 49 77 b 93 12 169 -17 249 -17 b 462 -17 487 133 487 225 z"},"V":{"x_min":0,"x_max":630,"ha":630,"o":"m 638 714 l 476 714 l 315 212 l 313 212 l 154 714 l -8 714 l 224 0 l 401 0 z"},"7":{"x_min":0,"x_max":548,"ha":548,"o":"m 528 698 l 25 698 l 25 574 l 356 574 b 324 497 210 261 103 0 l 269 0 b 373 275 488 503 528 590 z"},"S":{"x_min":0,"x_max":649,"ha":649,"o":"m 24 237 b 24 61 168 -17 328 -17 b 523 -17 625 81 625 212 b 625 374 466 407 413 420 b 234 463 200 475 200 528 b 200 588 258 609 308 609 b 357 609 430 606 449 523 l 601 501 b 601 666 464 731 315 731 b 186 731 48 662 48 515 b 48 248 473 346 473 194 b 473 121 389 105 334 105 b 276 105 192 118 176 212 z"},"Z":{"x_min":0,"x_max":648,"ha":648,"o":"m 23 0 l 625 0 l 625 132 l 232 132 l 615 590 l 615 714 l 53 714 l 53 582 l 406 582 l 23 124 z"},"x":{"x_min":0,"x_max":669,"ha":669,"o":"m -6 0 l 171 0 l 336 245 l 486 0 l 673 0 l 424 373 l 653 714 l 481 714 l 336 486 l 196 714 l 14 714 l 244 374 z"},"v":{"x_min":0,"x_max":629,"ha":629,"o":"m 638 714 l 476 714 l 315 212 l 313 212 l 154 714 l -8 714 l 224 0 l 401 0 z"},"O":{"x_min":0,"x_max":778,"ha":778,"o":"m 757 360 b 757 565 590 730 387 730 b 183 730 18 565 18 360 b 18 156 183 -9 387 -9 b 590 -9 757 156 757 360 z m 387 579 b 506 579 603 479 603 360 b 603 241 506 142 387 142 b 268 142 169 241 169 360 b 169 479 268 579 387 579 z"},"C":{"x_min":0,"x_max":741,"ha":741,"o":"m 713 191 b 649 220 647 224 579 259 b 543 191 473 148 393 148 b 276 148 181 243 181 360 b 181 476 276 572 393 572 b 470 572 538 530 573 469 b 641 502 646 505 707 537 b 646 646 530 722 393 722 b 193 722 31 558 31 360 b 31 160 193 -2 393 -2 b 534 -2 652 76 713 191 z"},"W":{"x_min":0,"x_max":944,"ha":944,"o":"m 941 714 l 787 714 l 682 221 l 668 222 l 546 714 l 399 714 l 275 228 l 261 226 l 160 714 l 3 714 l 192 0 l 351 0 l 470 486 l 472 486 l 593 0 l 749 0 z"},"A":{"x_min":0,"x_max":807,"ha":807,"o":"m 144 0 l 219 158 l 580 158 l 650 0 l 802 0 l 483 713 l 325 713 l 1 0 z m 407 579 l 523 303 l 286 303 l 406 579 z"},"f":{"x_min":0,"x_max":613,"ha":613,"o":"m 203 285 l 529 285 l 529 424 l 203 424 l 203 585 l 572 585 l 572 717 l 51 717 l 51 0 l 203 0 l 203 133 z"},"Q":{"x_min":0,"x_max":778,"ha":778,"o":"m 748 164 l 671 164 b 723 219 749 275 749 363 b 749 566 587 728 384 728 b 184 728 21 566 21 363 b 21 163 184 0 384 0 b 419 0 453 5 485 15 l 749 15 z m 384 576 b 503 576 597 482 597 363 b 597 246 503 152 384 152 b 267 152 170 246 170 363 b 170 482 267 576 384 576 z"},"w":{"x_min":0,"x_max":941,"ha":941,"o":"m 941 714 l 787 714 l 682 221 l 668 222 l 546 714 l 399 714 l 275 228 l 261 226 l 160 714 l 3 714 l 192 0 l 351 0 l 470 486 l 472 486 l 593 0 l 749 0 z"},"E":{"x_min":0,"x_max":648,"ha":648,"o":"m 529 285 l 529 424 l 203 424 l 203 585 l 572 585 l 572 717 l 51 717 l 51 1 l 606 1 l 606 133 l 203 133 l 203 285 z"},"s":{"x_min":0,"x_max":649,"ha":649,"o":"m 24 237 b 24 61 168 -17 328 -17 b 523 -17 625 81 625 212 b 625 374 466 407 413 420 b 234 463 200 475 200 528 b 200 588 258 609 308 609 b 357 609 430 606 449 523 l 601 501 b 601 666 464 731 315 731 b 186 731 48 662 48 515 b 48 248 473 346 473 194 b 473 121 389 105 334 105 b 276 105 192 118 176 212 z"},"l":{"x_min":0,"x_max":619,"ha":619,"o":"m 574 5 l 574 137 l 208 137 l 208 717 l 54 717 l 54 5 z"},"8":{"x_min":0,"x_max":554,"ha":554,"o":"m 279 422 b 219 422 188 468 188 510 b 188 562 220 598 284 598 b 329 598 366 566 366 510 b 366 459 335 422 279 422 z m 524 211 b 524 303 486 347 418 382 b 475 413 500 464 500 525 b 500 624 422 710 275 710 b 151 710 54 636 54 516 b 54 448 84 405 140 377 b 32 327 32 232 32 197 b 32 100 94 -19 278 -19 b 466 -19 524 121 524 211 z m 380 205 b 380 156 352 93 279 93 b 215 93 176 138 176 206 b 176 282 225 316 276 316 b 353 316 380 255 380 205 z"},"e":{"x_min":0,"x_max":650,"ha":650,"o":"m 203 285 l 529 285 l 529 424 l 203 424 l 203 585 l 572 585 l 572 717 l 51 717 l 51 1 l 606 1 l 606 133 l 203 133 z"},"b":{"x_min":0,"x_max":695,"ha":695,"o":"m 210 318 l 381 318 b 449 318 494 289 494 216 b 494 142 439 122 378 122 l 210 122 z m 53 0 l 399 0 b 528 0 651 62 651 207 b 651 296 608 363 520 388 b 584 419 617 465 617 537 b 617 670 525 714 389 714 l 53 714 z m 210 592 l 357 592 b 413 592 465 577 465 510 b 465 450 425 425 369 425 l 210 425 z"},"m":{"x_min":0,"x_max":907,"ha":907,"o":"m 86 0 l 235 0 l 235 500 l 237 500 l 395 180 l 516 180 l 675 505 l 677 505 l 677 0 l 824 0 l 824 714 l 617 714 l 455 399 l 290 714 l 86 714 z"},"#":{"x_min":0,"x_max":1013,"ha":1013,"o":"m 554 -1 l 687 -1 l 687 716 l 554 716 l 554 270 l 235 716 l 55 716 l 55 -1 l 179 -1 l 179 522 z m 963 594 b 963 661 909 714 844 714 b 777 714 724 661 724 594 b 724 526 777 475 844 475 b 909 475 963 526 963 594 z m 844 665 b 883 665 913 633 913 594 b 913 555 883 522 844 522 b 805 522 773 557 773 594 b 773 633 805 665 844 665 z"},"n":{"x_min":0,"x_max":741,"ha":741,"o":"m 554 -1 l 687 -1 l 687 716 l 554 716 l 554 270 l 235 716 l 55 716 l 55 -1 l 192 -1 l 192 493 z"},"h":{"x_min":0,"x_max":749,"ha":749,"o":"m 539 2 l 693 2 l 693 716 l 539 716 l 539 459 l 208 459 l 208 718 l 55 718 l 55 2 l 208 2 l 208 306 l 539 306 z"},"z":{"x_min":0,"x_max":648,"ha":648,"o":"m 23 0 l 625 0 l 625 132 l 232 132 l 615 590 l 615 714 l 53 714 l 53 582 l 406 582 l 23 124 z"},"B":{"x_min":0,"x_max":704,"ha":704,"o":"m 226 318 l 397 318 b 465 318 510 289 510 216 b 510 142 455 122 394 122 l 226 122 z m 69 0 l 415 0 b 544 0 667 62 667 207 b 667 296 624 363 536 388 b 600 419 633 465 633 537 b 633 670 541 714 405 714 l 69 714 z m 226 592 l 373 592 b 429 592 481 577 481 510 b 481 450 441 425 385 425 l 226 425 z"},"K":{"x_min":0,"x_max":722,"ha":722,"o":"m 408 310 l 677 715 l 482 715 l 203 310 l 203 715 l 43 715 l 43 0 l 203 0 l 203 71 l 296 200 l 482 0 l 698 0 z"},"R":{"x_min":0,"x_max":722,"ha":722,"o":"m 470 264 b 589 290 640 388 640 485 b 640 601 571 714 391 714 l 69 714 l 69 -1 l 227 -1 l 227 256 l 304 256 l 484 -1 l 676 -1 l 476 264 z m 349 592 b 424 592 486 578 486 485 b 486 394 424 377 349 377 l 227 377 l 227 592 z"},"T":{"x_min":0,"x_max":653,"ha":653,"o":"m 250 0 l 407 0 l 407 581 l 632 581 l 632 713 l 23 713 l 23 582 l 250 582 z"},"P":{"x_min":0,"x_max":667,"ha":667,"o":"m 69 0 l 226 0 l 226 256 l 391 256 b 570 256 638 369 638 485 b 638 601 570 714 391 714 l 69 714 z m 226 592 l 348 592 b 420 592 486 576 486 485 b 486 394 420 378 348 378 l 226 378 z"},"t":{"x_min":0,"x_max":653,"ha":653,"o":"m 250 0 l 407 0 l 407 581 l 632 581 l 632 713 l 23 713 l 23 582 l 250 582 z"},"M":{"x_min":0,"x_max":907,"ha":907,"o":"m 86 0 l 235 0 l 235 500 l 237 500 l 395 180 l 516 180 l 675 505 l 677 505 l 677 0 l 824 0 l 824 714 l 617 714 l 455 399 l 290 714 l 86 714 z"},"g":{"x_min":0,"x_max":759,"ha":759,"o":"m 745 381 b 622 381 481 382 380 382 l 380 250 b 380 249 389 249 408 249 b 448 249 521 250 553 250 l 569 250 b 540 182 460 142 380 142 b 260 142 164 237 164 358 b 164 478 260 574 380 574 b 460 574 528 533 565 469 b 635 504 640 507 703 539 b 639 650 518 727 380 727 b 177 727 11 561 11 358 b 11 154 177 -12 380 -12 b 519 -12 643 65 704 180 b 741 228 745 360 745 381 z"},"j":{"x_min":0,"x_max":556,"ha":556,"o":"m 487 714 l 330 714 l 330 232 b 330 181 330 115 247 115 b 174 115 159 151 159 204 l 14 180 b 14 160 25 109 49 77 b 93 12 169 -17 249 -17 b 462 -17 487 133 487 225 z"},"i":{"x_min":0,"x_max":288,"ha":288,"o":"m 69 0 l 226 0 l 226 714 l 69 714 z"},"y":{"x_min":0,"x_max":669,"ha":669,"o":"m 254 0 l 411 0 l 411 274 l 676 714 l 501 714 l 335 432 l 168 714 l -9 714 l 254 278 z"},"p":{"x_min":0,"x_max":667,"ha":667,"o":"m 69 0 l 226 0 l 226 256 l 391 256 b 570 256 638 369 638 485 b 638 601 570 714 391 714 l 69 714 z m 226 592 l 348 592 b 420 592 486 576 486 485 b 486 394 420 378 348 378 l 226 378 z"},"X":{"x_min":0,"x_max":667,"ha":667,"o":"m -6 0 l 171 0 l 336 245 l 486 0 l 673 0 l 424 373 l 653 714 l 481 714 l 336 486 l 196 714 l 14 714 l 244 374 z"},"Y":{"x_min":0,"x_max":667,"ha":667,"o":"m 254 0 l 411 0 l 411 274 l 676 714 l 501 714 l 335 432 l 168 714 l -9 714 l 254 278 z"},"c":{"x_min":0,"x_max":741,"ha":741,"o":"m 713 191 b 649 220 647 224 579 259 b 543 191 473 148 393 148 b 276 148 181 243 181 360 b 181 476 276 572 393 572 b 470 572 538 530 573 469 b 641 502 646 505 707 537 b 646 646 530 722 393 722 b 193 722 31 558 31 360 b 31 160 193 -2 393 -2 b 534 -2 652 76 713 191 z"},"6":{"x_min":0,"x_max":545,"ha":545,"o":"m 506 530 b 493 602 478 626 440 664 b 403 699 325 710 295 710 b 50 710 31 473 31 338 b 31 161 73 -19 288 -19 b 425 -19 520 84 520 240 b 520 346 451 459 303 459 b 224 459 189 427 170 400 l 168 402 b 173 494 193 598 285 598 b 337 598 363 570 367 530 z m 380 228 b 380 132 334 93 282 93 b 214 93 171 148 171 225 b 171 314 226 347 278 347 b 321 347 380 318 380 228 z"},"r":{"x_min":0,"x_max":722,"ha":722,"o":"m 470 264 b 589 290 640 388 640 485 b 640 601 571 714 391 714 l 69 714 l 69 -1 l 227 -1 l 227 256 l 304 256 l 484 -1 l 676 -1 l 476 264 z m 349 592 b 424 592 486 578 486 485 b 486 394 424 377 349 377 l 227 377 l 227 592 z"},"2":{"x_min":0,"x_max":539,"ha":539,"o":"m 28 0 l 511 0 l 511 124 l 203 124 b 220 157 268 188 362 255 b 432 303 510 361 510 486 b 510 629 402 710 266 710 b 203 710 34 691 34 459 l 170 459 b 170 511 173 592 272 592 b 339 592 370 539 370 491 b 370 410 319 375 191 282 b 130 237 52 176 28 138 z"},"9":{"x_min":0,"x_max":566,"ha":566,"o":"m 170 475 b 170 576 235 595 271 595 b 343 595 378 545 378 464 b 378 380 324 345 275 345 b 222 345 170 368 170 475 z m 44 164 b 55 51 144 -19 264 -19 b 392 -19 522 69 522 345 b 522 446 518 710 272 710 b 133 710 30 628 30 455 b 30 336 109 233 245 233 b 293 233 348 245 380 293 l 382 291 b 382 142 321 93 265 93 b 222 93 191 114 183 163 l 183 164 z"}," ":{"x_min":0,"x_max":303,"ha":303,"o":""},"I":{"x_min":0,"x_max":295,"ha":295,"o":"m 69 0 l 226 0 l 226 714 l 69 714 z"},"H":{"x_min":0,"x_max":741,"ha":741,"o":"m 539 2 l 693 2 l 693 716 l 539 716 l 539 459 l 208 459 l 208 718 l 55 718 l 55 2 l 208 2 l 208 306 l 539 306 z"},"4":{"x_min":0,"x_max":557,"ha":557,"o":"m 177 603 l 27 603 l 27 278 l 27 157 l 307 157 l 307 0 l 447 0 l 447 157 l 527 157 l 527 278 l 447 278 l 447 710 l 308 710 l 308 271 l 177 271 z"},"D":{"x_min":0,"x_max":741,"ha":741,"o":"m 69 0 l 377 0 b 595 0 701 154 701 361 b 701 597 562 714 377 714 l 69 714 z m 226 582 l 338 582 b 493 582 544 490 544 346 b 544 188 457 132 366 132 l 226 132 z"},"0":{"x_min":0,"x_max":547,"ha":547,"o":"m 32 346 b 32 97 111 -19 278 -19 b 445 -19 524 97 524 346 b 524 595 445 710 278 710 b 111 710 32 595 32 346 z m 176 346 b 176 530 198 598 278 598 b 358 598 380 530 380 346 b 380 163 358 93 278 93 b 198 93 176 163 176 346 z"},"F":{"x_min":0,"x_max":593,"ha":593,"o":"m 203 285 l 529 285 l 529 424 l 203 424 l 203 585 l 572 585 l 572 717 l 51 717 l 51 0 l 203 0 l 203 133 z"},"k":{"x_min":0,"x_max":722,"ha":722,"o":"m 408 310 l 677 715 l 482 715 l 203 310 l 203 715 l 43 715 l 43 0 l 203 0 l 203 71 l 296 200 l 482 0 l 698 0 z"},"u":{"x_min":0,"x_max":739,"ha":739,"o":"m 675 714 l 518 714 l 518 270 b 518 163 482 115 370 115 b 243 115 223 192 223 270 l 223 714 l 66 714 l 66 270 b 66 75 177 -17 370 -17 b 561 -17 675 77 675 270 z"},"U":{"x_min":0,"x_max":741,"ha":741,"o":"m 675 714 l 518 714 l 518 270 b 518 163 482 115 370 115 b 243 115 223 192 223 270 l 223 714 l 66 714 l 66 270 b 66 75 177 -17 370 -17 b 561 -17 675 77 675 270 z"},"o":{"x_min":0,"x_max":779,"ha":779,"o":"m 757 360 b 757 565 590 730 387 730 b 183 730 18 565 18 360 b 18 156 183 -9 387 -9 b 590 -9 757 156 757 360 z m 387 579 b 506 579 603 479 603 360 b 603 241 506 142 387 142 b 268 142 169 241 169 360 b 169 479 268 579 387 579 z"},"N":{"x_min":0,"x_max":741,"ha":741,"o":"m 554 -1 l 687 -1 l 687 716 l 554 716 l 554 270 l 235 716 l 55 716 l 55 -1 l 192 -1 l 192 493 z"},"G":{"x_min":0,"x_max":759,"ha":759,"o":"m 745 381 b 622 381 481 382 380 382 l 380 250 b 380 249 389 249 408 249 b 448 249 521 250 553 250 l 569 250 b 540 182 460 142 380 142 b 260 142 164 237 164 358 b 164 478 260 574 380 574 b 460 574 528 533 565 469 b 635 504 640 507 703 539 b 639 650 518 727 380 727 b 177 727 11 561 11 358 b 11 154 177 -12 380 -12 b 519 -12 643 65 704 180 b 741 228 745 360 745 381 z"},"q":{"x_min":0,"x_max":778,"ha":778,"o":"m 748 164 l 671 164 b 723 219 749 275 749 363 b 749 566 587 728 384 728 b 184 728 21 566 21 363 b 21 163 184 0 384 0 b 419 0 453 5 485 15 l 749 15 z m 384 576 b 503 576 597 482 597 363 b 597 246 503 152 384 152 b 267 152 170 246 170 363 b 170 482 267 576 384 576 z"},"d":{"x_min":0,"x_max":747,"ha":747,"o":"m 69 0 l 377 0 b 595 0 701 154 701 361 b 701 597 562 714 377 714 l 69 714 z m 226 582 l 338 582 b 493 582 544 490 544 346 b 544 188 457 132 366 132 l 226 132 z"},"1":{"x_min":0,"x_max":325,"ha":325,"o":"m 30 655 l 30 565 l 137 565 l 137 0 l 277 0 l 277 707 z"},"5":{"x_min":0,"x_max":545,"ha":545,"o":"m 181 580 l 488 580 l 488 698 l 49 698 l 49 308 l 174 302 b 200 352 249 353 268 353 b 342 353 372 289 372 226 b 372 150 334 93 266 93 b 202 93 174 130 167 190 l 27 190 b 35 47 146 -19 258 -19 b 467 -19 516 139 516 236 b 516 399 397 465 301 465 b 232 465 201 445 181 426 z"}}}
